<svg width="2732" height="1149" viewBox="0 0 2732 1149" fill="none" xmlns="http://www.w3.org/2000/svg">
<rect width="2732" height="1149" rx="51" fill="#191B1F"/>
<path opacity="0.5" d="M494.683 1026H488.001L524.99 956.182H531.808L545.615 1026H538.933L527.308 964.466H526.865L494.683 1026ZM503.956 999.239H538.592L537.638 1004.97H503.001L503.956 999.239ZM592.115 961.909L593.07 956.182H643.695L642.74 961.909H620.615L609.979 1026H603.604L614.24 961.909H592.115ZM640.78 1045.64C639.575 1045.64 638.462 1045.52 637.439 1045.3C636.439 1045.07 635.655 1044.82 635.087 1044.55L637.643 1039.19C639.553 1039.85 641.303 1040.06 642.893 1039.81C644.507 1039.58 646.041 1038.81 647.496 1037.49C648.95 1036.17 650.382 1034.2 651.791 1031.59L654.655 1026.27L644.291 973.636H650.598L658.78 1018.09H659.223L682.166 973.636H689.018L656.803 1034.22C655.416 1036.83 653.882 1038.98 652.2 1040.66C650.541 1042.34 648.746 1043.59 646.814 1044.41C644.905 1045.23 642.893 1045.64 640.78 1045.64ZM688.891 1045.64L700.959 973.636H706.857L705.22 983.625H705.936C706.891 982.057 708.129 980.443 709.652 978.784C711.197 977.125 713.118 975.739 715.413 974.625C717.732 973.489 720.504 972.92 723.732 972.92C728.05 972.92 731.629 974.045 734.47 976.295C737.334 978.545 739.334 981.705 740.47 985.773C741.629 989.841 741.754 994.568 740.845 999.955C739.959 1005.36 738.266 1010.1 735.766 1014.17C733.266 1018.24 730.209 1021.41 726.595 1023.68C723.004 1025.95 719.072 1027.09 714.8 1027.09C711.641 1027.09 709.084 1026.52 707.129 1025.39C705.197 1024.25 703.72 1022.85 702.697 1021.19C701.675 1019.51 700.936 1017.87 700.482 1016.28H699.936L695.027 1045.64H688.891ZM702.595 999.852C701.913 1004.08 701.913 1007.83 702.595 1011.1C703.277 1014.35 704.652 1016.91 706.72 1018.77C708.788 1020.61 711.516 1021.53 714.902 1021.53C718.379 1021.53 721.482 1020.58 724.209 1018.67C726.936 1016.74 729.209 1014.14 731.027 1010.86C732.845 1007.59 734.095 1003.92 734.777 999.852C735.413 995.83 735.391 992.205 734.709 988.977C734.027 985.75 732.663 983.193 730.618 981.307C728.572 979.398 725.788 978.443 722.266 978.443C718.857 978.443 715.788 979.364 713.061 981.205C710.357 983.023 708.107 985.545 706.311 988.773C704.516 991.977 703.277 995.67 702.595 999.852ZM770.854 1027.09C765.967 1027.09 761.933 1025.95 758.751 1023.68C755.57 1021.39 753.342 1018.22 752.07 1014.17C750.797 1010.1 750.604 1005.42 751.49 1000.12C752.376 994.852 754.126 990.17 756.74 986.08C759.354 981.966 762.581 978.75 766.422 976.432C770.263 974.091 774.433 972.92 778.933 972.92C781.774 972.92 784.433 973.443 786.911 974.489C789.388 975.511 791.49 977.091 793.217 979.227C794.967 981.341 796.183 984.011 796.865 987.239C797.547 990.443 797.524 994.239 796.797 998.625L796.32 1001.62H755.411L756.263 996.273H791.001C791.57 992.909 791.411 989.886 790.524 987.205C789.638 984.523 788.126 982.398 785.99 980.83C783.876 979.239 781.251 978.443 778.115 978.443C774.911 978.443 771.876 979.341 769.013 981.136C766.172 982.932 763.763 985.273 761.786 988.159C759.831 991.023 758.57 994.08 758.001 997.33L757.32 1001.35C756.592 1005.78 756.683 1009.5 757.592 1012.5C758.501 1015.48 760.149 1017.73 762.536 1019.25C764.922 1020.77 767.979 1021.53 771.706 1021.53C774.206 1021.53 776.467 1021.15 778.49 1020.38C780.513 1019.6 782.274 1018.57 783.774 1017.27C785.274 1015.95 786.479 1014.51 787.388 1012.94L792.808 1014.82C791.649 1017.02 790.013 1019.06 787.899 1020.92C785.808 1022.78 783.32 1024.28 780.433 1025.42C777.57 1026.53 774.376 1027.09 770.854 1027.09ZM847.601 985.125L841.771 986.625C841.476 985.057 840.93 983.648 840.135 982.398C839.362 981.125 838.237 980.125 836.76 979.398C835.305 978.648 833.396 978.273 831.033 978.273C827.487 978.273 824.43 979.136 821.862 980.864C819.294 982.568 817.794 984.75 817.362 987.409C816.999 989.636 817.464 991.443 818.76 992.83C820.078 994.216 822.283 995.307 825.374 996.102L833.01 998.045C837.237 999.136 840.249 1000.84 842.044 1003.16C843.862 1005.48 844.487 1008.41 843.919 1011.95C843.419 1014.91 842.158 1017.52 840.135 1019.8C838.135 1022.07 835.567 1023.85 832.43 1025.15C829.317 1026.44 825.839 1027.09 821.999 1027.09C816.839 1027.09 812.783 1025.93 809.828 1023.61C806.896 1021.3 805.328 1017.95 805.124 1013.59L811.226 1012.23C811.408 1015.32 812.464 1017.66 814.396 1019.25C816.351 1020.84 819.101 1021.64 822.646 1021.64C826.692 1021.64 830.089 1020.72 832.839 1018.88C835.589 1017.03 837.169 1014.76 837.578 1012.06C837.964 1009.92 837.567 1008.15 836.385 1006.74C835.226 1005.33 833.249 1004.28 830.453 1003.6L822.305 1001.56C817.919 1000.44 814.817 998.705 812.999 996.341C811.203 993.955 810.601 991.011 811.192 987.511C811.669 984.625 812.874 982.091 814.805 979.909C816.737 977.727 819.18 976.023 822.135 974.795C825.089 973.545 828.317 972.92 831.817 972.92C836.635 972.92 840.305 974.011 842.828 976.193C845.351 978.352 846.942 981.33 847.601 985.125ZM875.138 1027.09C870.411 1027.09 866.513 1025.92 863.445 1023.58C860.376 1021.24 858.229 1018.03 857.001 1013.97C855.797 1009.87 855.626 1005.24 856.49 1000.06C857.354 994.784 859.092 990.114 861.706 986.045C864.32 981.955 867.547 978.75 871.388 976.432C875.251 974.091 879.467 972.92 884.036 972.92C887.558 972.92 890.626 973.602 893.24 974.966C895.854 976.307 897.876 978.205 899.308 980.659C900.74 983.091 901.422 985.932 901.354 989.182H895.217C895.058 986.159 893.956 983.614 891.911 981.545C889.888 979.477 887.024 978.443 883.32 978.443C879.933 978.443 876.797 979.352 873.911 981.17C871.024 982.966 868.581 985.477 866.581 988.705C864.604 991.909 863.274 995.625 862.592 999.852C861.865 1004.1 861.933 1007.86 862.797 1011.14C863.661 1014.39 865.206 1016.93 867.433 1018.77C869.683 1020.61 872.524 1021.53 875.956 1021.53C878.297 1021.53 880.501 1021.1 882.57 1020.24C884.638 1019.35 886.467 1018.1 888.058 1016.49C889.649 1014.85 890.865 1012.93 891.706 1010.73H897.842C896.82 1013.91 895.206 1016.73 893.001 1019.18C890.82 1021.64 888.206 1023.57 885.161 1024.98C882.115 1026.39 878.774 1027.09 875.138 1027.09ZM908.257 1026L916.984 973.636H922.882L921.518 981.682H921.962C923.416 979.045 925.575 976.92 928.439 975.307C931.325 973.67 934.439 972.852 937.78 972.852C939.098 972.852 940.268 973 941.291 973.295C942.314 973.568 943.178 973.955 943.882 974.455L940.984 979.602C940.439 979.33 939.768 979.125 938.973 978.989C938.2 978.852 937.303 978.784 936.28 978.784C933.553 978.784 931.03 979.364 928.712 980.523C926.393 981.682 924.45 983.273 922.882 985.295C921.337 987.295 920.348 989.591 919.916 992.182L914.325 1026H908.257ZM944.419 1026L953.146 973.636H959.249L950.521 1026H944.419ZM958.396 964.534C957.124 964.534 956.044 964.102 955.158 963.239C954.294 962.375 953.874 961.33 953.896 960.102C953.942 958.943 954.408 957.943 955.294 957.102C956.203 956.239 957.271 955.807 958.499 955.807C959.771 955.807 960.851 956.25 961.737 957.136C962.624 958 963.044 959.045 962.999 960.273C962.976 961.432 962.51 962.432 961.601 963.273C960.692 964.114 959.624 964.534 958.396 964.534ZM963.297 1045.64L975.365 973.636H981.263L979.626 983.625H980.342C981.297 982.057 982.536 980.443 984.058 978.784C985.604 977.125 987.524 975.739 989.82 974.625C992.138 973.489 994.911 972.92 998.138 972.92C1002.46 972.92 1006.04 974.045 1008.88 976.295C1011.74 978.545 1013.74 981.705 1014.88 985.773C1016.04 989.841 1016.16 994.568 1015.25 999.955C1014.37 1005.36 1012.67 1010.1 1010.17 1014.17C1007.67 1018.24 1004.62 1021.41 1001 1023.68C997.411 1025.95 993.479 1027.09 989.206 1027.09C986.047 1027.09 983.49 1026.52 981.536 1025.39C979.604 1024.25 978.126 1022.85 977.104 1021.19C976.081 1019.51 975.342 1017.87 974.888 1016.28H974.342L969.433 1045.64H963.297ZM977.001 999.852C976.32 1004.08 976.32 1007.83 977.001 1011.1C977.683 1014.35 979.058 1016.91 981.126 1018.77C983.195 1020.61 985.922 1021.53 989.308 1021.53C992.786 1021.53 995.888 1020.58 998.615 1018.67C1001.34 1016.74 1003.62 1014.14 1005.43 1010.86C1007.25 1007.59 1008.5 1003.92 1009.18 999.852C1009.82 995.83 1009.8 992.205 1009.12 988.977C1008.43 985.75 1007.07 983.193 1005.02 981.307C1002.98 979.398 1000.19 978.443 996.672 978.443C993.263 978.443 990.195 979.364 987.467 981.205C984.763 983.023 982.513 985.545 980.717 988.773C978.922 991.977 977.683 995.67 977.001 999.852ZM1053.58 973.636L1052.73 978.92H1027.7L1028.59 973.636H1053.58ZM1038.44 961.091H1044.54L1036.02 1012.33C1035.66 1014.51 1035.75 1016.23 1036.29 1017.48C1036.84 1018.7 1037.68 1019.58 1038.82 1020.1C1039.95 1020.6 1041.2 1020.85 1042.57 1020.85C1043.36 1020.85 1044.04 1020.81 1044.61 1020.72C1045.2 1020.6 1045.73 1020.49 1046.18 1020.38L1046.62 1025.86C1045.96 1026.09 1045.18 1026.3 1044.27 1026.48C1043.36 1026.68 1042.27 1026.78 1041 1026.78C1038.77 1026.78 1036.71 1026.3 1034.83 1025.32C1032.94 1024.34 1031.51 1022.89 1030.53 1020.95C1029.56 1019.02 1029.29 1016.62 1029.75 1013.76L1038.44 961.091ZM1097.22 956.182H1103.29L1093.75 1014.1C1093.31 1016.81 1093.45 1018.64 1094.15 1019.59C1094.86 1020.55 1096.22 1020.91 1098.25 1020.68C1099 1020.61 1099.53 1020.56 1099.85 1020.51C1100.19 1020.44 1100.5 1020.36 1100.77 1020.27L1101.21 1025.59C1100.71 1025.73 1100.06 1025.86 1099.27 1026C1098.47 1026.14 1097.67 1026.22 1096.85 1026.24C1093.19 1026.47 1090.54 1025.67 1088.9 1023.85C1087.29 1022.03 1086.79 1019.26 1087.4 1015.53L1097.22 956.182ZM1109.33 1026L1118.05 973.636H1124.15L1115.43 1026H1109.33ZM1123.3 964.534C1122.03 964.534 1120.95 964.102 1120.06 963.239C1119.2 962.375 1118.78 961.33 1118.8 960.102C1118.85 958.943 1119.31 957.943 1120.2 957.102C1121.11 956.239 1122.18 955.807 1123.4 955.807C1124.68 955.807 1125.76 956.25 1126.64 957.136C1127.53 958 1127.95 959.045 1127.9 960.273C1127.88 961.432 1127.42 962.432 1126.51 963.273C1125.6 964.114 1124.53 964.534 1123.3 964.534ZM1132.74 1026L1144.33 956.182H1150.43L1145.93 983.625H1146.48C1147.41 982.057 1148.65 980.443 1150.19 978.784C1151.76 977.125 1153.69 975.739 1155.99 974.625C1158.28 973.489 1161.03 972.92 1164.24 972.92C1168.53 972.92 1172.11 974.057 1174.98 976.33C1177.86 978.58 1179.87 981.739 1181.01 985.807C1182.15 989.852 1182.27 994.568 1181.38 999.955C1180.48 1005.36 1178.78 1010.1 1176.31 1014.17C1173.83 1018.24 1170.78 1021.41 1167.17 1023.68C1163.56 1025.95 1159.61 1027.09 1155.34 1027.09C1152.16 1027.09 1149.59 1026.52 1147.63 1025.39C1145.7 1024.25 1144.23 1022.85 1143.2 1021.19C1142.2 1019.51 1141.48 1017.87 1141.02 1016.28H1140.27L1138.63 1026H1132.74ZM1143.1 999.852C1142.42 1004.08 1142.42 1007.83 1143.1 1011.1C1143.81 1014.35 1145.18 1016.91 1147.23 1018.77C1149.29 1020.61 1152.02 1021.53 1155.41 1021.53C1158.88 1021.53 1161.99 1020.58 1164.71 1018.67C1167.46 1016.74 1169.74 1014.14 1171.53 1010.86C1173.35 1007.59 1174.6 1003.92 1175.28 999.852C1175.94 995.83 1175.93 992.205 1175.25 988.977C1174.57 985.75 1173.19 983.193 1171.12 981.307C1169.06 979.398 1166.27 978.443 1162.77 978.443C1159.36 978.443 1156.29 979.364 1153.57 981.205C1150.86 983.023 1148.61 985.545 1146.82 988.773C1145.02 991.977 1143.78 995.67 1143.1 999.852ZM1190.35 1026L1199.08 973.636H1204.98L1203.61 981.682H1204.06C1205.51 979.045 1207.67 976.92 1210.53 975.307C1213.42 973.67 1216.53 972.852 1219.87 972.852C1221.19 972.852 1222.36 973 1223.38 973.295C1224.41 973.568 1225.27 973.955 1225.98 974.455L1223.08 979.602C1222.53 979.33 1221.86 979.125 1221.07 978.989C1220.29 978.852 1219.4 978.784 1218.37 978.784C1215.65 978.784 1213.12 979.364 1210.81 980.523C1208.49 981.682 1206.54 983.273 1204.98 985.295C1203.43 987.295 1202.44 989.591 1202.01 992.182L1196.42 1026H1190.35ZM1240.93 1027.19C1237.77 1027.19 1234.99 1026.58 1232.58 1025.35C1230.17 1024.1 1228.38 1022.31 1227.19 1019.97C1226.04 1017.6 1225.72 1014.74 1226.24 1011.38C1226.69 1008.78 1227.56 1006.6 1228.83 1004.83C1230.13 1003.06 1231.76 1001.6 1233.74 1000.47C1235.72 999.307 1237.99 998.398 1240.56 997.739C1243.13 997.08 1245.92 996.58 1248.94 996.239C1251.9 995.875 1254.42 995.557 1256.51 995.284C1258.6 995.011 1260.23 994.58 1261.39 993.989C1262.55 993.398 1263.24 992.443 1263.47 991.125L1263.67 989.898C1264.26 986.33 1263.72 983.523 1262.04 981.477C1260.35 979.409 1257.54 978.375 1253.58 978.375C1249.81 978.375 1246.54 979.216 1243.76 980.898C1241.01 982.557 1238.97 984.5 1237.63 986.727L1232.24 984.648C1233.88 981.784 1235.89 979.5 1238.27 977.795C1240.66 976.068 1243.22 974.83 1245.94 974.08C1248.67 973.307 1251.37 972.92 1254.02 972.92C1256.02 972.92 1258.06 973.182 1260.13 973.705C1262.19 974.227 1264.05 975.136 1265.68 976.432C1267.34 977.705 1268.56 979.489 1269.33 981.784C1270.13 984.057 1270.24 986.943 1269.67 990.443L1263.74 1026H1257.67L1259.07 1017.72H1258.69C1257.74 1019.26 1256.42 1020.76 1254.74 1022.22C1253.08 1023.67 1251.09 1024.86 1248.77 1025.8C1246.46 1026.73 1243.84 1027.19 1240.93 1027.19ZM1242.47 1021.64C1245.69 1021.64 1248.62 1020.92 1251.23 1019.49C1253.87 1018.06 1256.02 1016.16 1257.71 1013.8C1259.41 1011.41 1260.5 1008.78 1260.98 1005.92L1262.24 998.352C1261.74 998.784 1260.92 999.17 1259.79 999.511C1258.67 999.852 1257.41 1000.16 1256 1000.43C1254.62 1000.68 1253.22 1000.9 1251.81 1001.08C1250.42 1001.26 1249.19 1001.42 1248.13 1001.56C1245.1 1001.92 1242.47 1002.49 1240.22 1003.26C1237.99 1004.03 1236.21 1005.1 1234.87 1006.47C1233.52 1007.81 1232.68 1009.53 1232.34 1011.65C1231.82 1014.83 1232.51 1017.3 1234.42 1019.05C1236.35 1020.77 1239.04 1021.64 1242.47 1021.64ZM1279.88 1026L1288.61 973.636H1294.51L1293.14 981.682H1293.59C1295.04 979.045 1297.2 976.92 1300.06 975.307C1302.95 973.67 1306.06 972.852 1309.4 972.852C1310.72 972.852 1311.89 973 1312.92 973.295C1313.94 973.568 1314.8 973.955 1315.51 974.455L1312.61 979.602C1312.06 979.33 1311.39 979.125 1310.6 978.989C1309.83 978.852 1308.93 978.784 1307.9 978.784C1305.18 978.784 1302.65 979.364 1300.34 980.523C1298.02 981.682 1296.08 983.273 1294.51 985.295C1292.96 987.295 1291.97 989.591 1291.54 992.182L1285.95 1026H1279.88ZM1317.84 1045.64C1316.64 1045.64 1315.52 1045.52 1314.5 1045.3C1313.5 1045.07 1312.72 1044.82 1312.15 1044.55L1314.71 1039.19C1316.62 1039.85 1318.37 1040.06 1319.96 1039.81C1321.57 1039.58 1323.1 1038.81 1324.56 1037.49C1326.01 1036.17 1327.44 1034.2 1328.85 1031.59L1331.72 1026.27L1321.35 973.636H1327.66L1335.84 1018.09H1336.29L1359.23 973.636H1366.08L1333.87 1034.22C1332.48 1036.83 1330.94 1038.98 1329.26 1040.66C1327.6 1042.34 1325.81 1043.59 1323.88 1044.41C1321.97 1045.23 1319.96 1045.64 1317.84 1045.64ZM1426.5 973.636L1425.61 978.92H1399.91L1400.76 973.636H1426.5ZM1400.08 1026L1410.07 965.966C1410.52 963.148 1411.56 960.773 1413.17 958.841C1414.81 956.909 1416.76 955.443 1419.03 954.443C1421.31 953.443 1423.63 952.943 1426.02 952.943C1427.61 952.943 1428.91 953.08 1429.91 953.352C1430.91 953.602 1431.69 953.852 1432.26 954.102L1429.67 959.42C1429.21 959.284 1428.67 959.125 1428.03 958.943C1427.42 958.761 1426.61 958.67 1425.61 958.67C1422.98 958.67 1420.82 959.409 1419.13 960.886C1417.45 962.364 1416.37 964.477 1415.9 967.227L1406.15 1026H1400.08ZM1448.32 1027.09C1443.73 1027.09 1439.86 1025.93 1436.73 1023.61C1433.59 1021.27 1431.37 1018.03 1430.08 1013.9C1428.78 1009.76 1428.57 1004.99 1429.43 999.58C1430.29 994.307 1432.01 989.67 1434.58 985.67C1437.17 981.648 1440.35 978.523 1444.12 976.295C1447.9 974.045 1452 972.92 1456.43 972.92C1461.04 972.92 1464.91 974.091 1468.02 976.432C1471.16 978.773 1473.37 982.011 1474.67 986.148C1475.99 990.284 1476.21 995.068 1475.35 1000.5C1474.49 1005.75 1472.76 1010.38 1470.17 1014.38C1467.58 1018.35 1464.4 1021.47 1460.62 1023.72C1456.87 1025.97 1452.77 1027.09 1448.32 1027.09ZM1448.38 1021.53C1452.11 1021.53 1455.43 1020.55 1458.34 1018.57C1461.27 1016.57 1463.69 1013.91 1465.6 1010.59C1467.51 1007.25 1468.79 1003.58 1469.45 999.58C1470.07 995.761 1470 992.25 1469.25 989.045C1468.5 985.841 1467.06 983.273 1464.92 981.341C1462.78 979.409 1459.94 978.443 1456.4 978.443C1452.69 978.443 1449.37 979.455 1446.44 981.477C1443.51 983.477 1441.09 986.159 1439.18 989.523C1437.27 992.864 1436 996.523 1435.36 1000.5C1434.73 1004.34 1434.77 1007.85 1435.5 1011.03C1436.25 1014.22 1437.69 1016.76 1439.83 1018.67C1441.99 1020.58 1444.84 1021.53 1448.38 1021.53ZM1484.44 1026L1493.17 973.636H1499.07L1497.71 981.682H1498.15C1499.6 979.045 1501.76 976.92 1504.63 975.307C1507.51 973.67 1510.63 972.852 1513.97 972.852C1515.29 972.852 1516.46 973 1517.48 973.295C1518.5 973.568 1519.37 973.955 1520.07 974.455L1517.17 979.602C1516.63 979.33 1515.96 979.125 1515.16 978.989C1514.39 978.852 1513.49 978.784 1512.47 978.784C1509.74 978.784 1507.22 979.364 1504.9 980.523C1502.58 981.682 1500.64 983.273 1499.07 985.295C1497.52 987.295 1496.54 989.591 1496.1 992.182L1490.51 1026H1484.44ZM1576.89 973.636L1576.04 978.92H1551.02L1551.9 973.636H1576.89ZM1561.75 961.091H1567.86L1559.33 1012.33C1558.97 1014.51 1559.06 1016.23 1559.61 1017.48C1560.15 1018.7 1560.99 1019.58 1562.13 1020.1C1563.27 1020.6 1564.52 1020.85 1565.88 1020.85C1566.67 1020.85 1567.36 1020.81 1567.92 1020.72C1568.52 1020.6 1569.04 1020.49 1569.49 1020.38L1569.94 1025.86C1569.28 1026.09 1568.49 1026.3 1567.58 1026.48C1566.67 1026.68 1565.58 1026.78 1564.31 1026.78C1562.08 1026.78 1560.03 1026.3 1558.14 1025.32C1556.25 1024.34 1554.82 1022.89 1553.85 1020.95C1552.87 1019.02 1552.61 1016.62 1553.06 1013.76L1561.75 961.091ZM1594.56 993.273L1589.14 1026H1583.07L1594.66 956.182H1600.73L1596.5 981.852H1597.05C1598.68 979.125 1600.93 976.966 1603.8 975.375C1606.66 973.761 1610.08 972.955 1614.06 972.955C1617.58 972.955 1620.56 973.682 1622.99 975.136C1625.44 976.591 1627.18 978.739 1628.21 981.58C1629.25 984.42 1629.43 987.92 1628.75 992.08L1623.06 1026H1616.96L1622.55 992.455C1623.25 988.136 1622.62 984.739 1620.64 982.261C1618.68 979.761 1615.68 978.511 1611.64 978.511C1608.87 978.511 1606.27 979.102 1603.87 980.284C1601.48 981.466 1599.46 983.17 1597.8 985.398C1596.16 987.602 1595.08 990.227 1594.56 993.273ZM1660.07 1027.09C1655.19 1027.09 1651.15 1025.95 1647.97 1023.68C1644.79 1021.39 1642.56 1018.22 1641.29 1014.17C1640.02 1010.1 1639.82 1005.42 1640.71 1000.12C1641.6 994.852 1643.35 990.17 1645.96 986.08C1648.57 981.966 1651.8 978.75 1655.64 976.432C1659.48 974.091 1663.65 972.92 1668.15 972.92C1670.99 972.92 1673.65 973.443 1676.13 974.489C1678.61 975.511 1680.71 977.091 1682.44 979.227C1684.19 981.341 1685.4 984.011 1686.08 987.239C1686.77 990.443 1686.74 994.239 1686.02 998.625L1685.54 1001.62H1644.63L1645.48 996.273H1680.22C1680.79 992.909 1680.63 989.886 1679.74 987.205C1678.86 984.523 1677.35 982.398 1675.21 980.83C1673.1 979.239 1670.47 978.443 1667.33 978.443C1664.13 978.443 1661.1 979.341 1658.23 981.136C1655.39 982.932 1652.98 985.273 1651 988.159C1649.05 991.023 1647.79 994.08 1647.22 997.33L1646.54 1001.35C1645.81 1005.78 1645.9 1009.5 1646.81 1012.5C1647.72 1015.48 1649.37 1017.73 1651.75 1019.25C1654.14 1020.77 1657.2 1021.53 1660.92 1021.53C1663.42 1021.53 1665.69 1021.15 1667.71 1020.38C1669.73 1019.6 1671.49 1018.57 1672.99 1017.27C1674.49 1015.95 1675.7 1014.51 1676.61 1012.94L1682.03 1014.82C1680.87 1017.02 1679.23 1019.06 1677.12 1020.92C1675.03 1022.78 1672.54 1024.28 1669.65 1025.42C1666.79 1026.53 1663.6 1027.09 1660.07 1027.09ZM1750.29 1026.95C1744.19 1026.95 1739.1 1025.49 1735.01 1022.56C1730.94 1019.6 1728.08 1015.44 1726.42 1010.08C1724.79 1004.69 1724.57 998.364 1725.77 991.091C1726.66 985.614 1728.21 980.67 1730.41 976.261C1732.62 971.852 1735.32 968.08 1738.52 964.943C1741.75 961.807 1745.34 959.409 1749.3 957.75C1753.27 956.068 1757.47 955.227 1761.88 955.227C1765.69 955.227 1769.1 955.83 1772.1 957.034C1775.1 958.239 1777.65 959.898 1779.74 962.011C1781.85 964.102 1783.48 966.523 1784.62 969.273C1785.75 972 1786.34 974.909 1786.39 978H1779.84C1779.64 975.682 1779.1 973.511 1778.24 971.489C1777.38 969.443 1776.17 967.659 1774.63 966.136C1773.1 964.591 1771.25 963.386 1769.07 962.523C1766.89 961.659 1764.35 961.227 1761.47 961.227C1756.92 961.227 1752.59 962.409 1748.48 964.773C1744.39 967.136 1740.87 970.545 1737.91 975C1734.98 979.455 1732.99 984.818 1731.94 991.091C1730.92 997.341 1731.02 1002.69 1732.25 1007.15C1733.5 1011.6 1735.71 1015.02 1738.87 1017.41C1742.05 1019.77 1745.99 1020.95 1750.69 1020.95C1755.08 1020.95 1759.16 1019.97 1762.93 1017.99C1766.73 1015.99 1769.91 1013.19 1772.48 1009.6C1775.07 1006.01 1776.75 1001.83 1777.52 997.057L1778.41 997.909H1756.59L1757.55 992.182H1784.48L1778.89 1026H1773.43L1774.59 1014.92H1774.25C1771.16 1018.83 1767.64 1021.82 1763.68 1023.89C1759.73 1025.93 1755.26 1026.95 1750.29 1026.95ZM1830.02 1005.99L1835.44 973.636H1841.51L1832.79 1026H1826.72L1828.15 1017.31H1827.71C1826.07 1019.99 1823.75 1022.23 1820.75 1024.02C1817.77 1025.8 1814.37 1026.68 1810.52 1026.68C1807.18 1026.68 1804.33 1025.95 1801.97 1024.5C1799.63 1023.02 1797.96 1020.86 1796.96 1018.02C1795.96 1015.18 1795.8 1011.69 1796.48 1007.56L1802.17 973.636H1808.24L1802.65 1007.18C1801.99 1011.27 1802.65 1014.57 1804.63 1017.07C1806.63 1019.55 1809.51 1020.78 1813.29 1020.78C1815.65 1020.78 1818.01 1020.22 1820.38 1019.08C1822.76 1017.94 1824.83 1016.28 1826.58 1014.1C1828.35 1011.9 1829.5 1009.19 1830.02 1005.99ZM1848.92 1026L1857.65 973.636H1863.75L1855.02 1026H1848.92ZM1862.9 964.534C1861.62 964.534 1860.54 964.102 1859.66 963.239C1858.79 962.375 1858.37 961.33 1858.4 960.102C1858.44 958.943 1858.91 957.943 1859.79 957.102C1860.7 956.239 1861.77 955.807 1863 955.807C1864.27 955.807 1865.35 956.25 1866.24 957.136C1867.12 958 1867.54 959.045 1867.5 960.273C1867.48 961.432 1867.01 962.432 1866.1 963.273C1865.19 964.114 1864.12 964.534 1862.9 964.534ZM1882.66 956.182H1888.73L1879.18 1014.1C1878.75 1016.81 1878.89 1018.64 1879.59 1019.59C1880.3 1020.55 1881.66 1020.91 1883.68 1020.68C1884.43 1020.61 1884.97 1020.56 1885.29 1020.51C1885.63 1020.44 1885.93 1020.36 1886.21 1020.27L1886.65 1025.59C1886.15 1025.73 1885.5 1025.86 1884.71 1026C1883.91 1026.14 1883.1 1026.22 1882.29 1026.24C1878.63 1026.47 1875.98 1025.67 1874.34 1023.85C1872.73 1022.03 1872.23 1019.26 1872.84 1015.53L1882.66 956.182ZM1913.44 1027.09C1909.15 1027.09 1905.57 1025.95 1902.71 1023.68C1899.84 1021.41 1897.84 1018.24 1896.71 1014.17C1895.57 1010.1 1895.44 1005.36 1896.33 999.955C1897.24 994.568 1898.93 989.852 1901.41 985.807C1903.91 981.739 1906.97 978.58 1910.58 976.33C1914.22 974.057 1918.18 972.92 1922.48 972.92C1925.68 972.92 1928.24 973.489 1930.15 974.625C1932.08 975.739 1933.55 977.125 1934.55 978.784C1935.55 980.443 1936.26 982.057 1936.69 983.625H1937.24L1941.81 956.182H1947.91L1936.32 1026H1930.42L1932.06 1016.28H1931.31C1930.33 1017.87 1929.05 1019.51 1927.46 1021.19C1925.89 1022.85 1923.96 1024.25 1921.66 1025.39C1919.37 1026.52 1916.63 1027.09 1913.44 1027.09ZM1914.77 1021.53C1918.16 1021.53 1921.22 1020.61 1923.94 1018.77C1926.69 1016.91 1928.99 1014.35 1930.83 1011.1C1932.69 1007.83 1933.97 1004.08 1934.65 999.852C1935.35 995.67 1935.34 991.977 1934.62 988.773C1933.89 985.545 1932.48 983.023 1930.39 981.205C1928.3 979.364 1925.54 978.443 1922.1 978.443C1918.63 978.443 1915.54 979.398 1912.83 981.307C1910.13 983.193 1907.89 985.75 1906.12 988.977C1904.37 992.205 1903.15 995.83 1902.47 999.852C1901.81 1003.92 1901.81 1007.59 1902.47 1010.86C1903.13 1014.14 1904.47 1016.74 1906.49 1018.67C1908.54 1020.58 1911.3 1021.53 1914.77 1021.53ZM1974.6 1027.09C1969.72 1027.09 1965.68 1025.95 1962.5 1023.68C1959.32 1021.39 1957.09 1018.22 1955.82 1014.17C1954.55 1010.1 1954.35 1005.42 1955.24 1000.12C1956.13 994.852 1957.88 990.17 1960.49 986.08C1963.1 981.966 1966.33 978.75 1970.17 976.432C1974.01 974.091 1978.18 972.92 1982.68 972.92C1985.52 972.92 1988.18 973.443 1990.66 974.489C1993.14 975.511 1995.24 977.091 1996.97 979.227C1998.72 981.341 1999.93 984.011 2000.62 987.239C2001.3 990.443 2001.27 994.239 2000.55 998.625L2000.07 1001.62H1959.16L1960.01 996.273H1994.75C1995.32 992.909 1995.16 989.886 1994.27 987.205C1993.39 984.523 1991.88 982.398 1989.74 980.83C1987.63 979.239 1985 978.443 1981.87 978.443C1978.66 978.443 1975.63 979.341 1972.76 981.136C1969.92 982.932 1967.51 985.273 1965.54 988.159C1963.58 991.023 1962.32 994.08 1961.75 997.33L1961.07 1001.35C1960.34 1005.78 1960.43 1009.5 1961.34 1012.5C1962.25 1015.48 1963.9 1017.73 1966.29 1019.25C1968.67 1020.77 1971.73 1021.53 1975.46 1021.53C1977.96 1021.53 1980.22 1021.15 1982.24 1020.38C1984.26 1019.6 1986.02 1018.57 1987.52 1017.27C1989.02 1015.95 1990.23 1014.51 1991.14 1012.94L1996.56 1014.82C1995.4 1017.02 1993.76 1019.06 1991.65 1020.92C1989.56 1022.78 1987.07 1024.28 1984.18 1025.42C1981.32 1026.53 1978.13 1027.09 1974.6 1027.09ZM2028.1 1027.09C2023.81 1027.09 2020.23 1025.95 2017.36 1023.68C2014.5 1021.41 2012.5 1018.24 2011.36 1014.17C2010.23 1010.1 2010.1 1005.36 2010.99 999.955C2011.9 994.568 2013.59 989.852 2016.07 985.807C2018.57 981.739 2021.62 978.58 2025.24 976.33C2028.87 974.057 2032.84 972.92 2037.13 972.92C2040.34 972.92 2042.9 973.489 2044.81 974.625C2046.74 975.739 2048.2 977.125 2049.2 978.784C2050.2 980.443 2050.92 982.057 2051.35 983.625H2051.9L2056.46 956.182H2062.57L2050.98 1026H2045.08L2046.71 1016.28H2045.96C2044.99 1017.87 2043.7 1019.51 2042.11 1021.19C2040.54 1022.85 2038.61 1024.25 2036.32 1025.39C2034.02 1026.52 2031.28 1027.09 2028.1 1027.09ZM2029.43 1021.53C2032.82 1021.53 2035.87 1020.61 2038.6 1018.77C2041.35 1016.91 2043.65 1014.35 2045.49 1011.1C2047.35 1007.83 2048.62 1004.08 2049.31 999.852C2050.01 995.67 2050 991.977 2049.27 988.773C2048.54 985.545 2047.13 983.023 2045.04 981.205C2042.95 979.364 2040.19 978.443 2036.76 978.443C2033.28 978.443 2030.19 979.398 2027.49 981.307C2024.78 983.193 2022.54 985.75 2020.77 988.977C2019.02 992.205 2017.81 995.83 2017.12 999.852C2016.46 1003.92 2016.46 1007.59 2017.12 1010.86C2017.78 1014.14 2019.12 1016.74 2021.15 1018.67C2023.19 1020.58 2025.95 1021.53 2029.43 1021.53ZM2097.15 1026H2090.47L2127.46 956.182H2134.28L2148.08 1026H2141.4L2129.78 964.466H2129.33L2097.15 1026ZM2106.42 999.239H2141.06L2140.11 1004.97H2105.47L2106.42 999.239ZM2161.17 1026L2172.77 956.182H2195.3C2200.25 956.182 2204.24 957.125 2207.27 959.011C2210.29 960.898 2212.37 963.466 2213.5 966.716C2214.66 969.966 2214.9 973.636 2214.22 977.727C2213.56 981.773 2212.11 985.432 2209.86 988.705C2207.63 991.955 2204.69 994.534 2201.03 996.443C2197.39 998.352 2193.12 999.307 2188.21 999.307H2170.48L2171.44 993.58H2188.99C2192.65 993.58 2195.8 992.898 2198.44 991.534C2201.1 990.148 2203.22 988.261 2204.81 985.875C2206.4 983.466 2207.45 980.75 2207.95 977.727C2208.45 974.659 2208.29 971.932 2207.47 969.545C2206.67 967.159 2205.17 965.295 2202.97 963.955C2200.79 962.591 2197.86 961.909 2194.17 961.909H2178.19L2167.55 1026H2161.17ZM2240.27 956.182L2228.67 1026H2222.3L2233.89 956.182H2240.27Z" fill="white"/>
<path d="M570.375 423.702C570.375 423.702 570.897 497.987 609.083 574.811C648.314 648.747 702.401 696.257 747.022 715.177C793.124 693.648 837.667 656.288 861.973 616.015H735.406C702.654 588.911 676.886 543.931 670.964 491.941H1042.28C1023.97 575.533 985.117 651.548 948.097 699.954C896.553 767.218 826.903 818.439 747.292 847.628H746.126C612.95 794.626 541.306 711.15 494.029 616.946C463.707 556.596 432 446.996 432 299.628H1059C1059.1 341.119 1056.3 382.585 1050.64 423.702H570.375Z" fill="#F5C400"/>
<path d="M1201.2 847.256L1337.11 433.286L1473.78 847.256H1615.16L1420.67 299H1253.5L1059 847.256H1201.2Z" fill="white"/>
<path fill-rule="evenodd" clip-rule="evenodd" d="M1678.16 848.256H1811.71L1811.71 640.317H1843.76C1910.06 640.439 1941.9 638.736 1982.03 630.161C2017.36 621.563 2048.69 601.161 2070.85 572.329C2093 543.498 2104.64 507.967 2103.85 471.616C2103.85 376.323 2036.68 299 1902.33 299H1678.16V848.256ZM1894.5 545.826C1944.5 545.826 1967.93 520.041 1967.93 477.087C1967.93 436.461 1944.5 409.906 1894.51 409.906H1811.71V545.826H1894.5Z" fill="white"/>
<path d="M2166.89 847.256V299H2300.44V847.256H2166.89Z" fill="white"/>
</svg>
