<svg width="1869" height="550" viewBox="0 0 1869 550" fill="none" xmlns="http://www.w3.org/2000/svg">
<path d="M138.375 124.702C138.375 124.702 138.897 198.987 177.083 275.811C216.314 349.747 270.401 397.258 315.022 416.177C361.124 394.648 405.667 357.289 429.973 317.015H303.406C270.654 289.911 244.886 244.932 238.964 192.941H610.279C591.966 276.533 553.117 352.548 516.097 400.954C464.553 468.218 394.903 519.439 315.292 548.628H314.126C180.95 495.626 109.306 412.15 62.0292 317.946C31.7069 257.596 0 147.997 0 0.628418H626.997C627.1 42.1196 624.298 83.5848 618.636 124.702H138.375Z" fill="#F5C400"/>
<path d="M769.2 548.256L905.112 134.286L1041.78 548.256H1183.16L988.665 0H821.496L627 548.256H769.2Z" fill="white"/>
<path fill-rule="evenodd" clip-rule="evenodd" d="M1246.16 549.256H1379.71L1379.71 341.317H1411.76C1478.06 341.439 1509.9 339.736 1550.03 331.161C1585.36 322.563 1616.69 302.161 1638.85 273.329C1661 244.498 1672.64 208.967 1671.85 172.616C1671.85 77.3228 1604.68 0 1470.33 0H1246.16V549.256ZM1462.5 246.826C1512.5 246.826 1535.93 221.041 1535.93 178.087C1535.93 137.461 1512.5 110.906 1462.51 110.906H1379.71V246.826H1462.5Z" fill="white"/>
<path d="M1734.89 548.256V0H1868.44V548.256H1734.89Z" fill="white"/>
</svg>
